<svg width="40" height="40" viewBox="0 0 40 40" fill="none" xmlns="http://www.w3.org/2000/svg">
<rect width="40" height="40" rx="6" fill="white"/>
<path fill-rule="evenodd" clip-rule="evenodd" d="M16.6704 35.8069V29.0776L21.7447 23.9701C23.1296 22.566 24.5217 21.1749 25.911 19.7766C26.2561 19.3888 26.5712 18.9707 26.8491 18.5296C27.7728 17.065 28.3085 15.3264 28.3085 13.4639C28.3085 10.0762 26.5397 7.10371 23.8816 5.43148C22.4379 4.52473 20.7336 4 18.9061 4H12V8.70097H18.9061C21.5199 8.70097 23.6381 10.8331 23.6381 13.4639C23.6381 14.646 23.2098 15.7272 22.5023 16.559C22.3434 16.7464 22.1686 16.9223 21.9825 17.0823L12 27.13V35.8069H16.6704Z" fill="url(#paint0_linear_154_244)"/>
<path fill-rule="evenodd" clip-rule="evenodd" d="M12.0001 10.3663V24.7763L16.6705 20.0753V10.3663H12.0001Z" fill="url(#paint1_linear_154_244)"/>
<path d="M18.6576 35.8073V31.3691H23.8355V23.9722L28.2737 19.534V35.8073H18.6576Z" fill="url(#paint2_linear_154_244)"/>
<defs>
<linearGradient id="paint0_linear_154_244" x1="23.4652" y1="19.5339" x2="23.4652" y2="35.8072" gradientUnits="userSpaceOnUse">
<stop stop-color="#1847FF"/>
<stop offset="1" stop-color="#B64DFF"/>
</linearGradient>
<linearGradient id="paint1_linear_154_244" x1="23.4652" y1="19.5339" x2="23.4652" y2="35.8072" gradientUnits="userSpaceOnUse">
<stop stop-color="#1847FF"/>
<stop offset="1" stop-color="#B64DFF"/>
</linearGradient>
<linearGradient id="paint2_linear_154_244" x1="23.4652" y1="19.5339" x2="23.4652" y2="35.8072" gradientUnits="userSpaceOnUse">
<stop stop-color="#1847FF"/>
<stop offset="1" stop-color="#B64DFF"/>
</linearGradient>
</defs>
</svg>
